<?xml version="1.0" encoding="UTF-8"?><svg xmlns="http://www.w3.org/2000/svg" viewBox="0 0 992 992"><g id="Layer_2"><rect width="989.8" height="989.8" rx="198" ry="198" fill="#9fe870" stroke-width="0"/></g><g id="Layer_1"><path d="M311.2,561c-12-5-23-9.6-34.1-14.2-34.5-14.2-68.9-28.5-103.5-42.6-4-1.6-5.6-4-5.5-8.3.5-86.5.9-173,1.3-259.5,0-4.1,1.7-6.4,5.4-7.9,86.3-36.2,172.6-72.5,258.9-108.7,20.3-8.5,40.5-17,60.7-25.7,4.1-1.8,7.7-1.8,11.9,0,106.7,44.9,213.4,89.7,320.2,134.4,4.4,1.9,5.9,4.4,5.9,9.1-.1,41.3-.1,82.7,0,124,0,4.9-1.7,7.5-6.3,9.4-44.5,18.7-89,37.6-133.5,56.5-1.4.6-2.7,1.2-4.9,2.2,2.3,1,3.9,1.8,5.5,2.5,44.3,18.8,88.5,37.7,132.9,56.4,4.6,1.9,6.2,4.5,6.2,9.4-.1,85-.1,170,0,255,0,4.8-1.8,7.1-6.1,8.9-107.2,45.4-214.4,90.9-321.5,136.4-3.3,1.4-6.1,1.5-9.5,0-76.6-32.2-153.3-64.3-229.9-96.5-33.2-13.9-66.3-28.1-99.5-41.9-5-2.1-6.7-4.9-6.7-10.2.2-39,.3-78,.2-117,0-5.2,2.1-7.6,6.7-9.5,47.1-20,94.1-40.2,141.1-60.3.9-.4,1.8-.9,3.8-1.9ZM504.1,886.8c2.4-.9,3.9-1.3,5.4-2,13.1-5.4,26.2-10.8,39.2-16.3,89.7-38.1,179.3-76.3,269-114.3,3.5-1.5,4.6-3.3,4.6-7-.1-79.5-.1-159-.2-238.4,0-1.9-.2-3.8-.3-6.2-2.1.8-3.7,1.4-5.1,2.1-47,20.9-94,41.8-141.1,62.5-3.9,1.7-5.3,3.7-5.4,8.1-.1,39.5-.6,79-.8,118.5,0,4.5-1.6,6.9-5.8,8.6-51.5,21.3-103,42.8-154.5,64.2-3.7,1.5-5.3,3.3-5.2,7.6.2,35.5.1,71,.1,106.5,0,1.8,0,3.6,0,6.3ZM812.3,234.2c-2-1-3.2-1.8-4.6-2.4-26.2-11.1-52.4-22.3-78.7-33.3-74.5-31.3-149-62.4-223.4-93.8-3.7-1.6-6.7-1.5-10.3,0-100.5,42.4-201.1,84.6-301.6,126.9-1.3.6-2.6,1.3-4.4,2.2,1.8.9,2.9,1.5,4.1,2,42.5,17.9,85,35.7,127.5,53.7,4,1.7,7.2,1.1,10.8-.4,53.3-22.2,106.7-44.3,160-66.7,6-2.5,11-2.5,17,0,54.2,22.6,108.5,45,162.9,67.3,2.2.9,5.6.8,7.8,0,30.6-12.6,61.1-25.5,91.7-38.3,13.5-5.7,27-11.3,41.2-17.3ZM330.9,436.4c-.2.9-.5,1.4-.5,1.8-.1,38.5-.3,77-.5,115.5,0,3.1,1.3,4.2,4,5.3,98.5,39.8,197,79.7,295.5,119.5,9.7,3.9,19.4,7.7,29.5,11.7.2-1.7.4-2.6.4-3.5.4-37.8.6-75.6,1.1-113.4,0-3.3-1.7-4.2-4.1-5.2-46.1-18.7-92.2-37.4-138.4-56.1-52.3-21.2-104.6-42.3-156.9-63.5-10-4-20-8-30.1-12.1ZM170,636.5c0,37.6,0,74.3.2,110.9,0,1.5,1.9,3.7,3.4,4.4,33.1,14,66.3,27.8,99.5,41.7,71.9,30.2,143.7,60.5,215.5,90.7,1.6.7,3.3,1.2,5,1.8.2-.8.4-1.2.4-1.5,0-37.7.1-75.3,0-113,0-1.5-1.9-3.7-3.4-4.4-11.4-5-23-9.8-34.6-14.5-80.6-32.8-161.3-65.6-241.9-98.3-14.5-5.9-28.9-11.7-44.1-17.8ZM319.6,553c0-2.6,0-4.3,0-5.9.1-19.7.4-39.3.4-59,.2-60.6.2-121.3.5-181.9,0-4.3-1.3-6.4-5.3-8-43.5-18.1-86.8-36.5-130.2-54.8-1.6-.7-3.2-1.1-5.3-1.9,0,2.4,0,3.9,0,5.3-.4,80.6-.8,161.3-1.4,241.9,0,4.9,1.3,7.1,6,9,31.5,12.6,62.9,25.5,94.3,38.4,13.4,5.5,26.7,11,41,16.9ZM660.9,429.8c-2.4-1.1-3.8-1.9-5.3-2.5-49-20.4-98.1-40.7-147-61.4-6.3-2.7-11.3-2.4-17.4.1-46.5,19.5-93.2,38.7-139.8,58-3.6,1.5-7.1,3-11.3,4.8,1.3.7,1.9,1,2.5,1.3,51.5,20.9,103.1,41.7,154.5,62.7,4.4,1.8,8,1.8,12.3,0,41.9-17.5,83.9-34.8,125.9-52.2,8.2-3.4,16.4-6.9,25.5-10.7ZM504.7,232.6c-.3,1.2-.5,1.5-.5,1.8,0,38.6,0,77.3,0,115.9,0,1.4,1.8,3.4,3.2,4,51.9,21.7,103.9,43.2,155.9,64.7,1.8.7,3.6,1.4,6.2,2.4,0-2.9,0-5,0-7.1,0-35.6,0-71.3.3-106.9,0-5.1-1.4-7.5-6.2-9.5-39-15.8-77.9-31.9-116.8-47.9-14-5.8-28-11.5-42.2-17.4ZM493.9,233.2c-2.2.8-4.1,1.4-5.9,2.1-51.2,21.2-102.4,42.5-153.7,63.6-3.2,1.3-4,3.1-4,6.4,0,37.3,0,74.7,0,112,0,1.1.1,2.3.2,4.1,2.6-1,4.9-1.9,7.2-2.8,50.8-21.1,101.5-42.2,152.4-63.1,3.2-1.3,4-3,4-6.3-.1-37.2,0-74.3,0-111.5,0-1.3-.1-2.6-.2-4.4ZM648.3,697.3c-9.2-3.8-17.1-7.1-25.1-10.3-44.3-17.9-88.6-35.8-133-53.5-2-.8-4.7-1.2-6.5-.4-46.5,19.6-92.9,39.5-139.2,59.3-.9.4-1.7,1.1-2.8,1.7.8.5,1.3.8,1.7,1,51.1,20.9,102.3,41.9,153.5,62.6,2,.8,4.9.5,7-.4,41.1-16.9,82.1-34,123.2-51.1,6.7-2.8,13.4-5.7,21.3-9ZM517.6,500.4c1.8.9,2.5,1.2,3.3,1.5,46.7,19,93.4,38,140.2,56.8,2.4,1,6,.9,8.4-.2,38.3-16.8,76.4-33.8,114.6-50.7,9.5-4.2,19-8.5,29.4-13.1-2.5-1.2-4-2.1-5.6-2.8-43-18.4-86-36.8-129.2-55-2.4-1-5.9-.9-8.4.1-27.3,11.1-54.5,22.5-81.7,33.8-23.4,9.7-46.7,19.3-71,29.4ZM180,629c2.1,1,3.5,1.7,4.8,2.2,44.9,18.2,89.9,36.3,134.7,54.6,5,2,9.1,2.2,14.1,0,44.5-19.2,89.1-38.1,133.7-57.1,1.4-.6,2.7-1.3,4.7-2.4-2.3-1-3.6-1.7-5-2.3-45.8-18.7-91.6-37.4-137.4-56.2-3.6-1.5-6.5-1.2-9.9.3-42.8,18.6-85.6,37.1-128.4,55.6-3.6,1.6-7.2,3.2-11.4,5.1ZM680.1,421.2c2.2-.8,3.6-1.2,5-1.8,44.6-18.9,89.2-37.9,133.9-56.7,3.3-1.4,3.3-3.5,3.3-6.2,0-36.3,0-72.6,0-108.9,0-1.8,0-3.6,0-6.1-2.8,1.1-4.9,1.9-7,2.8-43.3,18.2-86.5,36.4-129.8,54.4-4,1.7-5.4,3.6-5.4,8,.2,36.5,0,73,0,109.4,0,1.5,0,2.9,0,5.2Z" fill="#000" stroke-width="0"/><path d="M812.3,234.2c-14.2,5.9-27.7,11.6-41.2,17.3-30.5,12.8-61.1,25.7-91.7,38.3-2.3.9-5.6,1-7.8,0-54.4-22.3-108.7-44.7-162.9-67.3-6-2.5-11-2.6-17,0-53.3,22.4-106.6,44.4-160,66.7-3.7,1.5-6.9,2.1-10.8.4-42.4-18-85-35.8-127.5-53.7-1.2-.5-2.3-1.1-4.1-2,1.8-.9,3.1-1.6,4.4-2.2,100.5-42.3,201.1-84.5,301.6-126.9,3.7-1.5,6.6-1.6,10.3,0,74.4,31.3,148.9,62.5,223.4,93.8,26.3,11,52.4,22.2,78.7,33.3,1.3.6,2.6,1.3,4.6,2.4Z" fill="#fff" stroke-width="0"/><path d="M660.9,429.8c-9.1,3.8-17.3,7.2-25.5,10.7-42,17.4-84,34.7-125.9,52.2-4.3,1.8-7.9,1.8-12.3,0-51.5-21-103-41.8-154.5-62.7-.6-.2-1.2-.6-2.5-1.3,4.1-1.8,7.7-3.3,11.3-4.8,46.6-19.3,93.3-38.5,139.8-58,6.1-2.5,11.1-2.8,17.4-.1,48.9,20.7,98,41,147,61.4,1.5.6,2.9,1.4,5.3,2.5Z" fill="#fff" stroke-width="0"/><path d="M648.3,697.3c-7.9,3.3-14.6,6.2-21.3,9-41,17.1-82.1,34.1-123.2,51.1-2.1.8-5,1.2-7,.4-51.2-20.8-102.3-41.7-153.5-62.6-.5-.2-.9-.5-1.7-1,1.1-.7,1.9-1.3,2.8-1.7,46.4-19.8,92.8-39.6,139.2-59.3,1.8-.8,4.6-.3,6.5.4,44.4,17.8,88.7,35.6,133,53.5,8,3.2,15.9,6.5,25.1,10.3Z" fill="#fff" stroke-width="0"/><path d="M517.6,500.4c24.3-10,47.7-19.7,71-29.4,27.2-11.3,54.4-22.7,81.7-33.8,2.4-1,6-1.1,8.4-.1,43.1,18.2,86.1,36.6,129.2,55,1.6.7,3.2,1.6,5.6,2.8-10.3,4.6-19.8,8.8-29.4,13.1-38.2,17-76.4,34-114.6,50.7-2.4,1-5.9,1.2-8.4.2-46.8-18.8-93.5-37.8-140.2-56.8-.8-.3-1.5-.7-3.3-1.5Z" fill="#fff" stroke-width="0"/><path d="M180,629c4.2-1.9,7.8-3.6,11.4-5.1,42.8-18.5,85.6-37,128.4-55.6,3.4-1.5,6.3-1.8,9.9-.3,45.8,18.8,91.6,37.5,137.4,56.2,1.4.6,2.7,1.2,5,2.3-2,1-3.3,1.8-4.7,2.4-44.6,19-89.2,37.9-133.7,57.1-5,2.2-9.1,2-14.1,0-44.9-18.3-89.8-36.4-134.7-54.6-1.4-.6-2.7-1.2-4.8-2.2Z" fill="#fff" stroke-width="0"/></g></svg>